<?xml version="1.0" encoding="utf-8"?>
<!-- Generator: Adobe Illustrator 22.0.1, SVG Export Plug-In . SVG Version: 6.00 Build 0)  -->
<svg version="1.1" id="Layer_1" xmlns="http://www.w3.org/2000/svg" xmlns:xlink="http://www.w3.org/1999/xlink" x="0px" y="0px"
	 viewBox="0 0 57 122" style="enable-background:new 0 0 57 122;" xml:space="preserve">
<style type="text/css">
	.st0{fill:#05668D;}
	.st1{fill:#A3BE3A;}
	.st2{fill:#67953F;}
</style>
<g>
	<rect x="181.9" y="69.9" class="st0" width="5.1" height="52.8"/>
	<path class="st1" d="M198.8,63.6c3,1.6,5.1,4.8,5.1,8.5c0,5.3-4.3,9.7-9.7,9.7c-0.7,0-1.3-0.1-1.9-0.2c-1.8,2.4-4.6,3.9-7.8,3.9
		c-3.2,0-6-1.5-7.8-3.9c-0.6,0.1-1.3,0.2-1.9,0.2c-5.3,0-9.7-4.3-9.7-9.7c0-3.7,2-6.9,5.1-8.5c-5.4-1.1-9.5-5.9-9.5-11.7
		c0-5.1,3.2-9.5,7.7-11.2c-2-1.8-3.3-4.4-3.3-7.2c0-5.3,4.3-9.7,9.7-9.7c0.8,0,1.6,0.1,2.4,0.3c-1.5-1.7-2.4-3.9-2.4-6.3
		c0-5.3,4.3-9.7,9.7-9.7s9.7,4.3,9.7,9.7c0,2.4-0.9,4.6-2.4,6.3c0.8-0.2,1.5-0.3,2.4-0.3c5.3,0,9.7,4.3,9.7,9.7
		c0,2.9-1.3,5.5-3.3,7.2c4.5,1.7,7.7,6,7.7,11.2C208.3,57.7,204.2,62.5,198.8,63.6z"/>
</g>
<g>
	<rect x="25.9" y="69.9" class="st0" width="5.1" height="52.8"/>
	<path class="st2" d="M42.8,63.6c3,1.6,5.1,4.8,5.1,8.5c0,5.3-4.3,9.7-9.7,9.7c-0.7,0-1.3-0.1-1.9-0.2c-1.8,2.4-4.6,3.9-7.8,3.9
		s-6-1.5-7.8-3.9c-0.6,0.1-1.3,0.2-1.9,0.2c-5.3,0-9.7-4.3-9.7-9.7c0-3.7,2-6.9,5.1-8.5c-5.4-1.1-9.5-5.9-9.5-11.7
		c0-5.1,3.2-9.5,7.7-11.2c-2-1.8-3.3-4.4-3.3-7.2c0-5.3,4.3-9.7,9.7-9.7c0.8,0,1.6,0.1,2.4,0.3c-1.5-1.7-2.4-3.9-2.4-6.3
		c0-5.3,4.3-9.7,9.7-9.7s9.7,4.3,9.7,9.7c0,2.4-0.9,4.6-2.4,6.3c0.8-0.2,1.5-0.3,2.4-0.3c5.3,0,9.7,4.3,9.7,9.7
		c0,2.9-1.3,5.5-3.3,7.2c4.5,1.7,7.7,6,7.7,11.2C52.3,57.7,48.2,62.5,42.8,63.6z"/>
</g>
</svg>
