<?xml version="1.0" encoding="utf-8"?>
<!-- Generator: Adobe Illustrator 22.0.1, SVG Export Plug-In . SVG Version: 6.00 Build 0)  -->
<svg version="1.1" id="Layer_1" xmlns="http://www.w3.org/2000/svg" xmlns:xlink="http://www.w3.org/1999/xlink" x="0px" y="0px"
	 viewBox="0 0 1203 492" style="enable-background:new 0 0 1203 492;" xml:space="preserve">
<style type="text/css">
	.st0{fill:#A3BE3A;}
	.st1{fill:#05668D;}
	.st2{fill:#427AA1;}
	.st3{fill:#ECF2FA;}
	.st4{fill:#6CA542;}
	.st5{fill:#CBDD5D;}
	.st6{fill:#98CCCD;}
	.st7{fill:#62913F;}
	.st8{fill:#67953F;}
	.st9{opacity:0.84;fill:#DDE67F;}
</style>
<rect x="391.6" y="31.4" class="st0" width="347.1" height="400.7"/>
<rect x="552.5" y="141.7" class="st1" width="393" height="86.3"/>
<rect x="552.5" y="228" class="st1" width="18.7" height="204.7"/>
<rect x="735.4" y="228" class="st1" width="210.1" height="204.7"/>
<rect x="571.2" y="228" class="st2" width="177.8" height="204.7"/>
<rect x="552.5" y="161.4" class="st3" width="46.7" height="45.6"/>
<rect x="604.1" y="161.4" class="st3" width="46.7" height="45.6"/>
<rect x="655.7" y="161.4" class="st3" width="46.7" height="45.6"/>
<rect x="707.4" y="161.4" class="st3" width="46.7" height="45.6"/>
<rect x="759" y="161.4" class="st3" width="46.7" height="45.6"/>
<rect x="810.6" y="161.4" class="st3" width="46.7" height="45.6"/>
<rect x="335.5" y="239.1" class="st0" width="217" height="193"/>
<rect x="335.5" y="239.1" class="st4" width="217" height="9.2"/>
<rect x="391.7" y="30.3" class="st4" width="346.8" height="9.2"/>
<rect x="552.5" y="141.7" class="st5" width="393" height="9.2"/>
<g>
	<rect x="385.1" y="330.4" class="st1" width="58.9" height="101.7"/>
	<rect x="444" y="330.4" class="st2" width="58.9" height="101.7"/>
</g>
<rect x="436.6" y="370.4" class="st6" width="2.5" height="14.8"/>
<g>
	<circle class="st3" cx="565.2" cy="88.7" r="31.4"/>
	<g>
		<rect x="559.4" y="68.4" class="st1" width="11.5" height="43.8"/>
		
			<rect x="559.4" y="68.4" transform="matrix(-1.836970e-16 1 -1 -1.836970e-16 655.504 -474.8115)" class="st1" width="11.5" height="43.8"/>
	</g>
</g>
<rect x="571.2" y="299.6" class="st0" width="41.9" height="133.1"/>
<rect x="616.5" y="299.6" class="st0" width="41.9" height="133.1"/>
<rect x="661.8" y="299.6" class="st0" width="41.9" height="133.1"/>
<rect x="707" y="299.6" class="st0" width="41.9" height="133.1"/>
<rect x="571.2" y="299.6" class="st7" width="177.8" height="8.9"/>
<rect x="448.9" y="370.4" class="st6" width="2.5" height="14.8"/>
<rect x="602.9" y="370.4" class="st1" width="2.5" height="14.8"/>
<rect x="649.6" y="370.4" class="st1" width="2.5" height="14.8"/>
<rect x="667.4" y="370.4" class="st1" width="2.5" height="14.8"/>
<rect x="712.3" y="370.4" class="st1" width="2.5" height="14.8"/>
<g>
	<rect x="1135.9" y="361.9" class="st1" width="6.9" height="70.8"/>
	<path class="st0" d="M1158.5,353.5c4,2.2,6.8,6.5,6.8,11.4c0,7.2-5.8,13-13,13c-0.9,0-1.7-0.1-2.5-0.3c-2.4,3.2-6.1,5.2-10.4,5.2
		c-4.3,0-8.1-2.1-10.4-5.2c-0.8,0.2-1.7,0.3-2.5,0.3c-7.2,0-13-5.8-13-13c0-4.9,2.7-9.2,6.8-11.4c-7.3-1.5-12.8-7.9-12.8-15.6
		c0-6.8,4.3-12.7,10.4-14.9c-2.7-2.4-4.4-5.8-4.4-9.7c0-7.2,5.8-13,13-13c1.1,0,2.2,0.1,3.2,0.4c-2-2.3-3.2-5.2-3.2-8.5
		c0-7.2,5.8-13,13-13c7.2,0,13,5.8,13,13c0,3.2-1.2,6.2-3.2,8.5c1-0.3,2.1-0.4,3.2-0.4c7.2,0,13,5.8,13,13c0,3.9-1.7,7.3-4.4,9.7
		c6.1,2.3,10.4,8.1,10.4,14.9C1171.3,345.6,1165.8,352,1158.5,353.5z"/>
</g>
<g>
	<rect x="1061" y="361.9" class="st1" width="6.9" height="70.8"/>
	<path class="st8" d="M1083.6,353.5c4,2.2,6.8,6.5,6.8,11.4c0,7.2-5.8,13-13,13c-0.9,0-1.7-0.1-2.5-0.3c-2.4,3.2-6.1,5.2-10.4,5.2
		c-4.3,0-8.1-2.1-10.4-5.2c-0.8,0.2-1.7,0.3-2.5,0.3c-7.2,0-13-5.8-13-13c0-4.9,2.7-9.2,6.8-11.4c-7.3-1.5-12.8-7.9-12.8-15.6
		c0-6.8,4.3-12.7,10.4-14.9c-2.7-2.4-4.4-5.8-4.4-9.7c0-7.2,5.8-13,13-13c1.1,0,2.2,0.1,3.2,0.4c-2-2.3-3.2-5.2-3.2-8.5
		c0-7.2,5.8-13,13-13c7.2,0,13,5.8,13,13c0,3.2-1.2,6.2-3.2,8.5c1-0.3,2.1-0.4,3.2-0.4c7.2,0,13,5.8,13,13c0,3.9-1.7,7.3-4.4,9.7
		c6.1,2.3,10.4,8.1,10.4,14.9C1096.4,345.6,1090.9,352,1083.6,353.5z"/>
</g>
<g>
	<rect x="145.2" y="361.9" class="st1" width="6.9" height="70.8"/>
	<path class="st8" d="M167.7,353.5c4,2.2,6.8,6.5,6.8,11.4c0,7.2-5.8,13-13,13c-0.9,0-1.7-0.1-2.5-0.3c-2.4,3.2-6.1,5.2-10.4,5.2
		c-4.3,0-8.1-2.1-10.4-5.2c-0.8,0.2-1.7,0.3-2.5,0.3c-7.2,0-13-5.8-13-13c0-4.9,2.7-9.2,6.8-11.4c-7.3-1.5-12.8-7.9-12.8-15.6
		c0-6.8,4.3-12.7,10.4-14.9c-2.7-2.4-4.4-5.8-4.4-9.7c0-7.2,5.8-13,13-13c1.1,0,2.2,0.1,3.2,0.4c-2-2.3-3.2-5.2-3.2-8.5
		c0-7.2,5.8-13,13-13s13,5.8,13,13c0,3.2-1.2,6.2-3.2,8.5c1-0.3,2.1-0.4,3.2-0.4c7.2,0,13,5.8,13,13c0,3.9-1.7,7.3-4.4,9.7
		c6.1,2.3,10.4,8.1,10.4,14.9C180.5,345.6,175,352,167.7,353.5z"/>
</g>
<g>
	<rect x="219" y="361.9" class="st1" width="6.9" height="70.8"/>
	<path class="st0" d="M241.6,353.5c4,2.2,6.8,6.5,6.8,11.4c0,7.2-5.8,13-13,13c-0.9,0-1.7-0.1-2.5-0.3c-2.4,3.2-6.1,5.2-10.4,5.2
		c-4.3,0-8.1-2.1-10.4-5.2c-0.8,0.2-1.7,0.3-2.5,0.3c-7.2,0-13-5.8-13-13c0-4.9,2.7-9.2,6.8-11.4c-7.3-1.5-12.8-7.9-12.8-15.6
		c0-6.8,4.3-12.7,10.4-14.9c-2.7-2.4-4.4-5.8-4.4-9.7c0-7.2,5.8-13,13-13c1.1,0,2.2,0.1,3.2,0.4c-2-2.3-3.2-5.2-3.2-8.5
		c0-7.2,5.8-13,13-13s13,5.8,13,13c0,3.2-1.2,6.2-3.2,8.5c1-0.3,2.1-0.4,3.2-0.4c7.2,0,13,5.8,13,13c0,3.9-1.7,7.3-4.4,9.7
		c6.1,2.3,10.4,8.1,10.4,14.9C254.4,345.6,248.9,352,241.6,353.5z"/>
</g>
<rect x="284.9" y="169" class="st1" width="20" height="263.1"/>
<circle class="st0" cx="294.9" cy="143.8" r="31.5"/>
<polygon class="st9" points="261.3,144.4 31.7,492.6 558.2,492.6 328.6,144.4 "/>
</svg>
